<svg xmlns="http://www.w3.org/2000/svg" width="42.627" height="29.039" viewBox="0 0 11.278 7.683" version="1.1"><g display="inline" opacity="1"><path d="M.083 6.436V.43C.083.22.268.06.48.086a35.49 35.49 0 0 0 10.319 0c.211-.026.396.106.396.344v6.006c0 .212-.185.37-.396.344a35.49 35.49 0 0 0-10.32 0 .348.348 0 0 1-.396-.344zM3.126 7.6h5.053" stroke-miterlimit="10" display="inline" fill="none" stroke="#2b2e31" stroke-width=".16589166"/><g display="inline" stroke-width="1"><path stroke-miterlimit="10" fill="none" stroke="#2b2e31" stroke-width=".627" d="M580.4 282v-4.6" transform="matrix(.26458 0 0 .26458 -148.402 -67.012)"/><path stroke-miterlimit="10" fill="none" stroke="#2b2e31" stroke-width=".16589166" d="M6.113 7.6V6.382"/></g></g></svg>