<?xml version="1.0" encoding="UTF-8" standalone="no"?>
<svg width="100%" height="100%" viewBox="0 0 284 116" version="1.1" xmlns="http://www.w3.org/2000/svg" xmlns:xlink="http://www.w3.org/1999/xlink">
  <!-- Generator: Sketch 43.1 (39012) - http://www.bohemiancoding.com/sketch -->
  <title>Group 2</title>
  <desc>Created with Sketch.</desc>
  <defs></defs>
  <g id="Page-1" stroke="none" stroke-width="1" fill="none" fill-rule="evenodd">
    <g id="Group-2" transform="translate(0.000000, -1.000000)">
      <text id="Paneltype" fill="#01082E" font-family="Helvetica" font-size="6.2683" font-weight="normal">
        <tspan x="50.7975" y="12.0405">Paneltype:</tspan>
      </text>
      <text id="paneltype_value" fill="#01082E" font-family="Helvetica" font-size="18" font-weight="normal">
        <tspan x="50.7975" y="32.9302">Unknown</tspan>
      </text>
      <text id="High-Dynamic-Range" fill="#01082E" font-family="Helvetica" font-size="6.2683" font-weight="normal">
        <tspan x="168.3752" y="12.0405">High Dynamic Range:</tspan>
      </text>
      <text id="high-dynamic-range_value" fill="#01082E" font-family="Helvetica" font-size="18" font-weight="normal">
        <tspan x="168.3752" y="32.9302">Unknown</tspan>
      </text>
      <text id="Full-HD" fill="#01082E" font-family="Helvetica" font-size="6.2683" font-weight="normal">
        <tspan x="39.2072" y="81.9219">Oppløsning:</tspan>
      </text>
      <g id="full-hd-value" transform="translate(39.206200, 83.752000)" font-family="Helvetica" fill="#01082E" font-weight="normal">
        <text id="full-hd_value" font-size="10">
          <tspan x="0" y="13">Unknown</tspan>
        </text>
        <text id="resolution_value" font-size="8.9156">
          <tspan x="0" y="23.7">Unknown</tspan>
        </text>
      </g>
      <path d="M101.7,1 L101.7,116.5" id="Shape" stroke="#E2E3E4" stroke-width="0.6268"></path>
      <path d="M88.9,56.9 L0.5,56.9" id="Shape" stroke="#E2E3E4" stroke-width="0.6268"></path>
      <path d="M247.6,56.9 L115.3,56.9" id="Shape" stroke="#E2E3E4" stroke-width="0.6268"></path>
      <text id="SmartTV" fill="#01082E" font-family="Helvetica" font-size="6.2683" font-weight="normal">
        <tspan x="168.3752" y="82.4365">SmartTV:</tspan>
      </text>
      <text id="smart-tv_value" fill="#01082E" font-family="Helvetica" font-size="18" font-weight="normal">
        <tspan x="168.3752" y="105.835">Unknown</tspan>
      </text>
      <g id="Group" transform="translate(0.000000, 77.000000)" stroke="#2B2E31" stroke-width="0.6268">
        <path d="M32.2,0.9 L32.2,32.4" id="Shape"></path>
        <path d="M0.7,32.4 L0.7,0.9" id="Shape"></path>
        <path d="M0.7,8.7 L32.2,8.7" id="Shape"></path>
        <path d="M0.7,16.6 L32.2,16.6" id="Shape"></path>
        <path d="M0.7,24.5 L32.2,24.5" id="Shape"></path>
        <path d="M32.2,32.4 L0.7,32.4" id="Shape"></path>
        <path d="M0.7,0.9 L32.2,0.9" id="Shape"></path>
        <path d="M11.2,32.4 L11.2,0.9" id="Shape"></path>
        <path d="M21.7,32.4 L21.7,0.9" id="Shape"></path>
      </g>
      <g id="Group" transform="translate(115.000000, 77.000000)" stroke="#2B2E31" stroke-width="0.6268">
        <path d="M0.3,26.1 L0.3,1.2 C0.3,1 0.5,0.8 0.7,0.8 L41.8,0.8 C42,0.8 42.2,1 42.2,1.2 L42.2,26.1 C42.2,26.3 42,26.5 41.8,26.5 L0.7,26.5 C0.5,26.5 0.3,26.3 0.3,26.1 Z"
          id="Shape"></path>
        <g transform="translate(13.000000, 26.000000)" id="Shape">
          <path d="M2.9,0.6 L1.7,3.4"></path>
          <path d="M14.2,3.4 L13,0.6"></path>
          <path d="M0.2,3.4 L15.7,3.4"></path>
        </g>
      </g>
      <g id="Group" transform="translate(115.000000, 7.000000)" stroke="#2B2E31" stroke-width="0.6268">
        <path d="M0.3,26 L0.3,1.1 C0.3,0.9 0.5,0.7 0.7,0.7 L41.8,0.7 C42,0.7 42.2,0.9 42.2,1.1 L42.2,26 C42.2,26.2 42,26.4 41.8,26.4 L0.7,26.4 C0.5,26.4 0.3,26.2 0.3,26 Z"
          id="Shape"></path>
        <g transform="translate(13.000000, 26.000000)" id="Shape">
          <path d="M2.9,0.5 L1.7,3.3"></path>
          <path d="M14.2,3.3 L13,0.5"></path>
          <path d="M0.2,3.3 L15.7,3.3"></path>
        </g>
      </g>
      <text id="HDR" fill="#2B2E31" font-family="Helvetica" font-size="15.4094" font-weight="normal">
        <tspan x="121.1838" y="25.7783">HDR</tspan>
      </text>
      <g id="Group" transform="translate(0.000000, 7.000000)" stroke="#2B2E31" stroke-width="0.6268">
        <path d="M0.7,26 L0.7,1.1 C0.7,0.9 0.9,0.7 1.1,0.7 L42.2,0.7 C42.4,0.7 42.6,0.9 42.6,1.1 L42.6,26 C42.6,26.2 42.4,26.4 42.2,26.4 L1.1,26.4 C0.9,26.4 0.7,26.2 0.7,26 Z"
          id="Shape"></path>
        <g transform="translate(13.000000, 26.000000)" id="Shape">
          <path d="M3.3,0.5 L2.1,3.3"></path>
          <path d="M14.6,3.3 L13.4,0.5"></path>
          <path d="M0.6,3.3 L16.2,3.3"></path>
        </g>
      </g>
      <path d="M141.7,92.4 L141.7,92.2 C141.8,91.7 141.9,91.2 141.9,90.6 C141.9,87.3 139.3,84.7 136,84.6 L136,84.6 L136,84.6 C136,84.6 136,84.6 135.9,84.6 C135.8,84.6 135.9,84.6 135.8,84.6 L135.8,84.6 L135.8,84.6 C132.6,84.6 129.9,87.3 129.9,90.6 C129.9,91.1 130,91.7 130.1,92.2 L130.1,92.4 C130.8,94.8 133.1,96.6 135.7,96.6 L135.7,96.6 L135.7,96.6 L135.8,96.6 L135.9,96.6 L135.9,96.6 L135.9,96.6 C138.7,96.6 140.9,94.8 141.7,92.4 Z M140.6,92.8 C140.3,93 139.7,93.2 138.9,93.4 C139.1,92.7 139.2,92 139.2,91.1 C139.9,90.9 140.5,90.7 141,90.4 C141.2,90.3 141.3,90.2 141.4,90.1 L141.4,90.6 C141.4,91.1 141.3,91.7 141.2,92.1 C141.1,92.4 140.9,92.6 140.6,92.8 Z M130.8,92.2 C130.8,92.2 130.8,92.1 130.8,92.2 C130.8,92.1 130.8,92.1 130.8,92.2 C130.8,92.1 130.8,92.1 130.8,92.2 C130.6,91.7 130.6,91.2 130.6,90.7 L130.6,90.2 C130.7,90.3 130.8,90.4 131,90.5 C131.4,90.8 132,91 132.8,91.2 C132.8,92.1 132.9,92.8 133.1,93.5 C131.3,93.1 130.9,92.4 130.8,92.2 Z M131.5,87.6 C131.6,87.7 131.7,87.8 131.9,87.9 C132.2,88 132.5,88.1 132.9,88.2 C132.8,88.9 132.7,89.6 132.7,90.5 C130.9,90.1 130.7,89.4 130.7,89.3 C130.9,88.7 131.2,88.1 131.5,87.6 Z M141.2,89.3 C141.2,89.4 141,90.1 139.2,90.5 C139.2,89.6 139.1,88.9 139,88.2 C139.4,88.1 139.7,88 140,87.9 C140.2,87.8 140.3,87.7 140.4,87.6 C140.7,88.1 141,88.7 141.2,89.3 Z M138.6,90.7 C138,90.8 137.2,90.9 136.2,90.9 L136.2,88.6 C137,88.6 137.7,88.5 138.4,88.4 C138.5,89 138.6,89.7 138.6,90.7 Z M136.2,87.9 L136.2,85.3 C136.5,85.4 136.8,85.5 137.2,85.9 C137.6,86.2 138,86.8 138.2,87.7 C137.7,87.9 137.1,87.9 136.2,87.9 Z M134.7,86 C135.1,85.6 135.4,85.5 135.7,85.4 L135.7,88 C134.9,88 134.2,87.9 133.7,87.9 C133.9,86.9 134.3,86.3 134.7,86 Z M135.7,88.5 L135.7,90.8 C134.7,90.8 134,90.7 133.3,90.6 C133.3,89.7 133.4,88.9 133.5,88.3 C134.1,88.4 134.8,88.5 135.7,88.5 Z M133.3,91.2 C134,91.3 134.8,91.4 135.7,91.4 L135.7,93.6 C134.9,93.6 134.2,93.5 133.7,93.5 C133.5,92.9 133.3,92.2 133.3,91.2 Z M135.7,94.2 L135.7,96 C135.4,95.9 135.1,95.8 134.7,95.4 C134.4,95.1 134.1,94.7 133.9,94.1 C134.4,94.2 135,94.2 135.7,94.2 Z M137.2,95.4 C136.8,95.8 136.5,95.9 136.2,96 L136.2,94.2 C136.9,94.2 137.5,94.2 138,94.1 C137.8,94.7 137.5,95.1 137.2,95.4 Z M136.2,93.7 L136.2,91.5 C137.1,91.5 137.9,91.4 138.6,91.3 C138.6,92.2 138.4,93 138.3,93.6 C137.7,93.6 137,93.6 136.2,93.7 Z M140,87.2 C139.9,87.3 139.8,87.3 139.7,87.4 C139.5,87.5 139.2,87.6 138.8,87.7 C138.5,86.8 138.1,86.1 137.6,85.6 C138.6,85.9 139.4,86.4 140,87.2 Z M134.3,85.6 C133.8,86.1 133.4,86.8 133.1,87.7 C132.8,87.6 132.6,87.6 132.4,87.5 C132.1,87.4 132,87.3 131.9,87.2 C132.5,86.4 133.3,85.9 134.3,85.6 Z M131.3,93.5 C131.8,93.8 132.4,93.9 133.2,94.1 C133.5,94.8 133.8,95.4 134.3,95.9 C133,95.4 132,94.6 131.3,93.5 Z M137.6,95.8 C138.1,95.3 138.4,94.8 138.7,94 C139.5,93.9 140.1,93.7 140.6,93.4 C139.9,94.6 138.9,95.4 137.6,95.8 Z"
        id="Shape" fill="#2B2E31" fill-rule="nonzero"></path>
      <path d="M15.1,10.2 L2.7,22.6" id="Shape" stroke="#2B2E31" stroke-width="0.6268"></path>
      <path d="M9.6,10.7 L3.2,17.1" id="Shape" stroke="#2B2E31" stroke-width="0.6268"></path>
    </g>
  </g>
</svg>