<?xml version="1.0" encoding="UTF-8" standalone="no"?>
<svg
   xmlns:dc="http://purl.org/dc/elements/1.1/"
   xmlns:cc="http://creativecommons.org/ns#"
   xmlns:rdf="http://www.w3.org/1999/02/22-rdf-syntax-ns#"
   xmlns:svg="http://www.w3.org/2000/svg"
   xmlns="http://www.w3.org/2000/svg"
   xmlns:sodipodi="http://sodipodi.sourceforge.net/DTD/sodipodi-0.dtd"
   xmlns:inkscape="http://www.inkscape.org/namespaces/inkscape"
   width="100%"
   height="100%"
   viewBox="0 0 284 116"
   version="1.1"
   id="svg4822"
   sodipodi:docname="tv.svg"
   inkscape:version="0.92.1 r15371">
  <metadata
     id="metadata4826">
    <rdf:RDF>
      <cc:Work
         rdf:about="">
        <dc:format>image/svg+xml</dc:format>
        <dc:type
           rdf:resource="http://purl.org/dc/dcmitype/StillImage" />
        <dc:title>Group 2</dc:title>
      </cc:Work>
    </rdf:RDF>
  </metadata>
  <sodipodi:namedview
     pagecolor="#ffffff"
     bordercolor="#666666"
     borderopacity="1"
     objecttolerance="10"
     gridtolerance="10"
     guidetolerance="10"
     inkscape:pageopacity="0"
     inkscape:pageshadow="2"
     inkscape:window-width="1366"
     inkscape:window-height="715"
     id="namedview4824"
     showgrid="false"
     inkscape:zoom="3.1056338"
     inkscape:cx="142"
     inkscape:cy="58"
     inkscape:window-x="-8"
     inkscape:window-y="-8"
     inkscape:window-maximized="1"
     inkscape:current-layer="Group-2" />
  <!-- Generator: Sketch 43.1 (39012) - http://www.bohemiancoding.com/sketch -->
  <title
     id="title4717">Group 2</title>
  <desc
     id="desc4719">Created with Sketch.</desc>
  <defs
     id="defs4721" />
  <g
     style="fill:none;fill-rule:evenodd;stroke:none;stroke-width:1"
     transform="translate(0,-1)"
     id="Group-2">
    <text
       style="font-weight:normal;font-size:6.26830006px;font-family:Helvetica;fill:#01082e"
       font-weight="normal"
       font-size="6.2683"
       id="Paneltype">
      <tspan
         id="tspan4723"
         y="12.0405"
         x="50.797501">Paneltype:</tspan>
    </text>
    <text
       style="font-weight:normal;font-size:18px;font-family:Helvetica;fill:#01082e"
       font-weight="normal"
       font-size="18"
       id="paneltype_value">
      <tspan
         id="tspan4726"
         y="32.930199"
         x="50.797501">Unknown</tspan>
    </text>
    <text
       style="font-weight:normal;font-size:6.26830006px;font-family:Helvetica;fill:#01082e"
       font-weight="normal"
       font-size="6.2683"
       id="High-Dynamic-Range">
      <tspan
         id="tspan4729"
         y="12.0405"
         x="168.3752">High Dynamic Range:</tspan>
    </text>
    <text
       style="font-weight:normal;font-size:18px;font-family:Helvetica;fill:#01082e"
       font-weight="normal"
       font-size="18"
       id="high-dynamic-range_value">
      <tspan
         id="tspan4732"
         y="32.930199"
         x="168.3752">Unknown</tspan>
    </text>
    <text
       style="font-weight:normal;font-size:6.26830006px;font-family:Helvetica;fill:#01082e"
       font-weight="normal"
       font-size="6.2683"
       id="Full-HD">
      <tspan
         id="tspan4735"
         y="81.921898"
         x="39.207199">Oppløsning:</tspan>
    </text>
    <g
       style="font-weight:normal;font-family:Helvetica;fill:#01082e"
       font-weight="normal"
       transform="translate(39.2062,83.752)"
       id="full-hd-value">
      <text
         style="font-size:10px"
         font-size="10"
         id="full-hd_value">
        <tspan
           id="tspan4738"
           y="13"
           x="0">Unknown</tspan>
      </text>
      <text
         style="font-size:8.91559982px"
         font-size="8.9156"
         id="resolution_value">
        <tspan
           id="tspan4741"
           y="23.700001"
           x="0">Unknown</tspan>
      </text>
    </g>
    <path
       style="stroke:#e2e3e4;stroke-width:0.6268"
       inkscape:connector-curvature="0"
       id="Shape"
       d="M 101.7,1 V 116.5" />
    <path
       style="stroke:#e2e3e4;stroke-width:0.6268"
       inkscape:connector-curvature="0"
       id="path4746"
       d="M 88.9,56.9 H 0.5" />
    <path
       style="stroke:#e2e3e4;stroke-width:0.6268"
       inkscape:connector-curvature="0"
       id="path4748"
       d="M 247.6,56.9 H 115.3" />
    <text
       style="font-weight:normal;font-size:6.26830006px;font-family:Helvetica;fill:#01082e"
       font-weight="normal"
       font-size="6.2683"
       id="SmartTV">
      <tspan
         id="tspan4750"
         y="82.436501"
         x="168.3752">SmartTV:</tspan>
    </text>
    <text
       style="font-weight:normal;font-size:18px;font-family:Helvetica;fill:#01082e"
       font-weight="normal"
       font-size="18"
       id="smart-tv_value">
      <tspan
         id="tspan4753"
         y="105.835"
         x="168.3752">Unknown</tspan>
    </text>
    <g
       style="stroke:#2b2e31;stroke-width:0.6268"
       transform="translate(0,77)"
       id="Group">
      <path
         inkscape:connector-curvature="0"
         id="path4756"
         d="M 32.2,0.9 V 32.4" />
      <path
         inkscape:connector-curvature="0"
         id="path4758"
         d="M 0.7,32.4 V 0.9" />
      <path
         inkscape:connector-curvature="0"
         id="path4760"
         d="M 0.7,8.7 H 32.2" />
      <path
         inkscape:connector-curvature="0"
         id="path4762"
         d="M 0.7,16.6 H 32.2" />
      <path
         inkscape:connector-curvature="0"
         id="path4764"
         d="M 0.7,24.5 H 32.2" />
      <path
         inkscape:connector-curvature="0"
         id="path4766"
         d="M 32.2,32.4 H 0.7" />
      <path
         inkscape:connector-curvature="0"
         id="path4768"
         d="M 0.7,0.9 H 32.2" />
      <path
         inkscape:connector-curvature="0"
         id="path4770"
         d="M 11.2,32.4 V 0.9" />
      <path
         inkscape:connector-curvature="0"
         id="path4772"
         d="M 21.7,32.4 V 0.9" />
    </g>
    <g
       style="stroke:#2b2e31;stroke-width:0.6268"
       transform="translate(115,77)"
       id="g4785">
      <path
         inkscape:connector-curvature="0"
         id="path4775"
         d="M 0.3,26.1 V 1.2 C 0.3,1 0.5,0.8 0.7,0.8 h 41.1 c 0.2,0 0.4,0.2 0.4,0.4 v 24.9 c 0,0.2 -0.2,0.4 -0.4,0.4 H 0.7 c -0.2,0 -0.4,-0.2 -0.4,-0.4 z" />
      <g
         id="g4783"
         transform="translate(13,26)">
        <path
           inkscape:connector-curvature="0"
           id="path4777"
           d="M 2.9,0.6 1.7,3.4" />
        <path
           inkscape:connector-curvature="0"
           id="path4779"
           d="M 14.2,3.4 13,0.6" />
        <path
           inkscape:connector-curvature="0"
           id="path4781"
           d="M 0.2,3.4 H 15.7" />
      </g>
    </g>
    <g
       style="stroke:#2b2e31;stroke-width:0.6268"
       transform="translate(115,7)"
       id="g4797">
      <path
         inkscape:connector-curvature="0"
         id="path4787"
         d="M 0.3,26 V 1.1 C 0.3,0.9 0.5,0.7 0.7,0.7 h 41.1 c 0.2,0 0.4,0.2 0.4,0.4 V 26 c 0,0.2 -0.2,0.4 -0.4,0.4 H 0.7 C 0.5,26.4 0.3,26.2 0.3,26 Z" />
      <g
         id="g4795"
         transform="translate(13,26)">
        <path
           inkscape:connector-curvature="0"
           id="path4789"
           d="M 2.9,0.5 1.7,3.3" />
        <path
           inkscape:connector-curvature="0"
           id="path4791"
           d="M 14.2,3.3 13,0.5" />
        <path
           inkscape:connector-curvature="0"
           id="path4793"
           d="M 0.2,3.3 H 15.7" />
      </g>
    </g>
    <text
       style="font-weight:normal;font-size:15.40939999px;font-family:Helvetica;fill:#2b2e31"
       font-weight="normal"
       font-size="15.4094"
       id="HDR">
      <tspan
         id="tspan4799"
         y="25.778299"
         x="121.1838">HDR</tspan>
    </text>
    <g
       style="stroke:#2b2e31;stroke-width:0.6268"
       transform="translate(0,7)"
       id="g4812">
      <path
         inkscape:connector-curvature="0"
         id="path4802"
         d="M 0.7,26 V 1.1 C 0.7,0.9 0.9,0.7 1.1,0.7 h 41.1 c 0.2,0 0.4,0.2 0.4,0.4 V 26 c 0,0.2 -0.2,0.4 -0.4,0.4 H 1.1 C 0.9,26.4 0.7,26.2 0.7,26 Z" />
      <g
         id="g4810"
         transform="translate(13,26)">
        <path
           inkscape:connector-curvature="0"
           id="path4804"
           d="M 3.3,0.5 2.1,3.3" />
        <path
           inkscape:connector-curvature="0"
           id="path4806"
           d="M 14.6,3.3 13.4,0.5" />
        <path
           inkscape:connector-curvature="0"
           id="path4808"
           d="M 0.6,3.3 H 16.2" />
      </g>
    </g>
    <path
       style="fill:#2b2e31;fill-rule:nonzero"
       inkscape:connector-curvature="0"
       id="path4814"
       d="m 141.7,92.4 v -0.2 c 0.1,-0.5 0.2,-1 0.2,-1.6 0,-3.3 -2.6,-5.9 -5.9,-6 v 0 0 c 0,0 0,0 -0.1,0 -0.1,0 0,0 -0.1,0 v 0 0 c -3.2,0 -5.9,2.7 -5.9,6 0,0.5 0.1,1.1 0.2,1.6 v 0.2 c 0.7,2.4 3,4.2 5.6,4.2 v 0 0 h 0.1 0.1 v 0 0 c 2.8,0 5,-1.8 5.8,-4.2 z m -1.1,0.4 c -0.3,0.2 -0.9,0.4 -1.7,0.6 0.2,-0.7 0.3,-1.4 0.3,-2.3 0.7,-0.2 1.3,-0.4 1.8,-0.7 0.2,-0.1 0.3,-0.2 0.4,-0.3 v 0.5 c 0,0.5 -0.1,1.1 -0.2,1.5 -0.1,0.3 -0.3,0.5 -0.6,0.7 z m -9.8,-0.6 c 0,0 0,-0.1 0,0 0,-0.1 0,-0.1 0,0 0,-0.1 0,-0.1 0,0 -0.2,-0.5 -0.2,-1 -0.2,-1.5 v -0.5 c 0.1,0.1 0.2,0.2 0.4,0.3 0.4,0.3 1,0.5 1.8,0.7 0,0.9 0.1,1.6 0.3,2.3 -1.8,-0.4 -2.2,-1.1 -2.3,-1.3 z m 0.7,-4.6 c 0.1,0.1 0.2,0.2 0.4,0.3 0.3,0.1 0.6,0.2 1,0.3 -0.1,0.7 -0.2,1.4 -0.2,2.3 -1.8,-0.4 -2,-1.1 -2,-1.2 0.2,-0.6 0.5,-1.2 0.8,-1.7 z m 9.7,1.7 c 0,0.1 -0.2,0.8 -2,1.2 0,-0.9 -0.1,-1.6 -0.2,-2.3 0.4,-0.1 0.7,-0.2 1,-0.3 0.2,-0.1 0.3,-0.2 0.4,-0.3 0.3,0.5 0.6,1.1 0.8,1.7 z m -2.6,1.4 c -0.6,0.1 -1.4,0.2 -2.4,0.2 v -2.3 c 0.8,0 1.5,-0.1 2.2,-0.2 0.1,0.6 0.2,1.3 0.2,2.3 z m -2.4,-2.8 v -2.6 c 0.3,0.1 0.6,0.2 1,0.6 0.4,0.3 0.8,0.9 1,1.8 -0.5,0.2 -1.1,0.2 -2,0.2 z M 134.7,86 c 0.4,-0.4 0.7,-0.5 1,-0.6 V 88 c -0.8,0 -1.5,-0.1 -2,-0.1 0.2,-1 0.6,-1.6 1,-1.9 z m 1,2.5 v 2.3 c -1,0 -1.7,-0.1 -2.4,-0.2 0,-0.9 0.1,-1.7 0.2,-2.3 0.6,0.1 1.3,0.2 2.2,0.2 z m -2.4,2.7 c 0.7,0.1 1.5,0.2 2.4,0.2 v 2.2 c -0.8,0 -1.5,-0.1 -2,-0.1 -0.2,-0.6 -0.4,-1.3 -0.4,-2.3 z m 2.4,3 V 96 c -0.3,-0.1 -0.6,-0.2 -1,-0.6 -0.3,-0.3 -0.6,-0.7 -0.8,-1.3 0.5,0.1 1.1,0.1 1.8,0.1 z m 1.5,1.2 c -0.4,0.4 -0.7,0.5 -1,0.6 v -1.8 c 0.7,0 1.3,0 1.8,-0.1 -0.2,0.6 -0.5,1 -0.8,1.3 z m -1,-1.7 v -2.2 c 0.9,0 1.7,-0.1 2.4,-0.2 0,0.9 -0.2,1.7 -0.3,2.3 -0.6,0 -1.3,0 -2.1,0.1 z m 3.8,-6.5 c -0.1,0.1 -0.2,0.1 -0.3,0.2 -0.2,0.1 -0.5,0.2 -0.9,0.3 -0.3,-0.9 -0.7,-1.6 -1.2,-2.1 1,0.3 1.8,0.8 2.4,1.6 z m -5.7,-1.6 c -0.5,0.5 -0.9,1.2 -1.2,2.1 -0.3,-0.1 -0.5,-0.1 -0.7,-0.2 -0.3,-0.1 -0.4,-0.2 -0.5,-0.3 0.6,-0.8 1.4,-1.3 2.4,-1.6 z m -3,7.9 c 0.5,0.3 1.1,0.4 1.9,0.6 0.3,0.7 0.6,1.3 1.1,1.8 -1.3,-0.5 -2.3,-1.3 -3,-2.4 z m 6.3,2.3 c 0.5,-0.5 0.8,-1 1.1,-1.8 0.8,-0.1 1.4,-0.3 1.9,-0.6 -0.7,1.2 -1.7,2 -3,2.4 z" />
    <path
       style="stroke:#2b2e31;stroke-width:0.6268"
       inkscape:connector-curvature="0"
       id="path4816"
       d="M 15.1,10.2 2.7,22.6" />
    <path
       style="stroke:#2b2e31;stroke-width:0.6268"
       inkscape:connector-curvature="0"
       id="path4818"
       d="M 9.6,10.7 3.2,17.1" />
  </g>
</svg>
